<svg xmlns="http://www.w3.org/2000/svg" width="38.46" height="50.045" viewBox="0 0 38.46 50.045">
  <path id="Trazado_972" data-name="Trazado 972" d="M363.833,376.334l-9.568-9.568-9.568,9.568h3.614V400.06a4.9,4.9,0,0,1-1.681,3.731,5.677,5.677,0,0,1-3.988,1.552,5.587,5.587,0,0,1-3.856-1.516,4.856,4.856,0,0,1-1.681-3.757V380.942H325.373v19a15.856,15.856,0,0,0,5.207,11.93,17.3,17.3,0,0,0,12.325,4.943,16.926,16.926,0,0,0,12.161-4.918,16,16,0,0,0,5.108-11.981V376.334Z" transform="translate(-325.373 -366.766)" fill="#fff"/>
</svg>
